<svg width="80" height="80" viewBox="0 0 80 80" fill="none" xmlns="http://www.w3.org/2000/svg">
<g clip-path="url(#clip0_968_25)">
<path d="M40 0C29.3938 0 19.2125 4.21688 11.7188 11.7156C4.21733 19.2174 0.00214655 29.3911 0 40C0 50.6044 4.21875 60.7856 11.7188 68.2844C19.2125 75.7831 29.3938 80 40 80C50.6062 80 60.7875 75.7831 68.2812 68.2844C75.7812 60.7856 80 50.6044 80 40C80 29.3956 75.7812 19.2144 68.2812 11.7156C60.7875 4.21688 50.6062 0 40 0Z" fill="url(#paint0_linear_968_25)"/>
<path d="M18.1063 39.5775C29.7688 34.4975 37.5438 31.1483 41.4313 29.53C52.5438 24.9094 54.8501 24.1069 56.3563 24.0797C56.6876 24.0744 57.4251 24.1562 57.9063 24.5453C58.3063 24.8734 58.4188 25.3172 58.4751 25.6288C58.5251 25.94 58.5938 26.6494 58.5376 27.2031C57.9376 33.5281 55.3313 48.8769 54.0063 55.9613C53.4501 58.9588 52.3438 59.9638 51.2751 60.0619C48.9501 60.2756 47.1876 58.5269 44.9376 57.0525C41.4188 54.7444 39.4313 53.3081 36.0126 51.0563C32.0626 48.4538 34.6251 47.0231 36.8751 44.6856C37.4626 44.0738 47.7001 34.7644 47.8938 33.92C47.9188 33.8144 47.9438 33.4206 47.7063 33.2131C47.4751 33.005 47.1313 33.0763 46.8813 33.1325C46.5251 33.2125 40.9063 36.93 30.0063 44.2844C28.4126 45.3806 26.9688 45.915 25.6688 45.8869C24.2438 45.8563 21.4938 45.0794 19.4501 44.4156C16.9501 43.6013 14.9563 43.1706 15.1313 41.7875C15.2188 41.0675 16.2126 40.3306 18.1063 39.5775Z" fill="white"/>
</g>
<defs>
<linearGradient id="paint0_linear_968_25" x1="4000" y1="0" x2="4000" y2="8000" gradientUnits="userSpaceOnUse">
<stop stop-color="#2AABEE"/>
<stop offset="1" stop-color="#229ED9"/>
</linearGradient>
<clipPath id="clip0_968_25">
<rect width="80" height="80" fill="white"/>
</clipPath>
</defs>
</svg>
